# xmcd
#
# Track frame offsets:
# 150
# 26762
# 48049
# 65470
# 82122
# 105212
# 124421
# 139648
# 156886
# 172852
# 192272
# 209786
# 230080
# 248308
# 266937
# 283364
# 301401
#
# Disc length: 4240 seconds
#
#
# Revision: 0
# Processed by: cddbd v1.5.1PL0 Copyright (c) Steve Scherf et al.
# Submitted via: FreeRIP 2.941 
#
DISCID=f5108e11
DTITLE=Rick e Renner - 10 Anos de Sucesso
DYEAR=1900
DGENRE=Sertanejo
TTITLE0=So pensando em voce
TTITLE1=A forca do amor
TTITLE2=Nos bares da Cidade
TTITLE3=Vou ganhar voce
TTITLE4=Mil vezes cantarei (Una Y Mil Veces)
TTITLE5=Sem direcao
TTITLE6=Preciso te encontrar
TTITLE7=Fim de Semana
TTITLE8=Muleca
TTITLE9=Seguir em frente
TTITLE10=Bandida
TTITLE11=Filha
TTITLE12=Baby
TTITLE13=Cara de pau
TTITLE14=Feiticeira
TTITLE15=Instante Magico
TTITLE16=Feiticeira
EXTD=
EXTT0=
EXTT1=
EXTT2=
EXTT3=
EXTT4=
EXTT5=
EXTT6=
EXTT7=
EXTT8=
EXTT9=
EXTT10=
EXTT11=
EXTT12=
EXTT13=
EXTT14=
EXTT15=
EXTT16=
PLAYORDER=
